<svg width="130" height="130" viewBox="0 0 130 130" fill="none" xmlns="http://www.w3.org/2000/svg">
<path d="M62.5919 64.9999H66.203V91.4814L62.5919 86.6666V64.9999Z" fill="#FFB700"/>
<path d="M62.5924 62.5926H113.148L105.926 66.2037H62.5924V62.5926Z" fill="#FFB700"/>
<path d="M108.333 96.2963C112.475 96.2963 121.908 95.7421 126.389 89.0741C129.578 84.3276 130 78.4649 130 74.6296H119.166C119.166 81.8519 115.555 86.6667 108.335 86.6667L79.4442 86.6667V96.2963L99.9071 96.2963C99.9071 96.2963 101.112 96.2963 108.333 96.2963Z" fill="#FFB700"/>
<path d="M64.9998 130V120.37C34.4197 120.37 9.6296 95.5802 9.6296 65C9.6296 34.4198 34.4197 9.62963 64.9998 9.62963V0C29.1014 0 0 29.1015 0 65C0 100.899 29.1014 130 64.9998 130Z" fill="#FFB700"/>
<path d="M79.4442 96.2963L113.593 130H129.941L130 129.967L95.885 96.2963H79.4442Z" fill="#FFB700"/>
</svg>
